<svg xmlns="http://www.w3.org/2000/svg" width="280" height="48" viewBox="0 0 280 48">
  <defs>
    <linearGradient id="bg" x1="0" y1="0" x2="0" y2="1">
      <stop offset="0%" stop-color="#2a2a2a"/>
      <stop offset="100%" stop-color="#000000"/>
    </linearGradient>
    <filter id="shadow" x="-2" y="-2" width="284" height="52">
      <feDropShadow dx="0" dy="2" stdDeviation="3" flood-color="#000000" flood-opacity="0.15"/>
    </filter>
  </defs>
  
  <!-- Background with shadow -->
  <rect x="0" y="0" width="280" height="48" rx="12" ry="12" fill="url(#bg)" filter="url(#shadow)"/>
  
  <!-- Apple logo -->
  <g transform="translate(24, 12)" fill="white">
    <path d="M8.5 2.5c.4 0 .7-.2 1-.5.5-.6.7-1.4.6-2.1-.1-.7-.5-1.3-1.1-1.6-.6-.3-1.3-.3-1.9 0-.6.3-1 1-1.1 1.7-.1.7.1 1.4.6 2 .3.3.6.5 1 .5z"/>
    <path d="M9.5 4.5c-1.1 0-2.2.6-2.8.6-.7 0-1.7-.6-2.8-.6-2.2 0-4.2 1.3-5.3 3.3-2.3 4-.6 9.9 1.6 13.1 1.1 1.6 2.3 3.3 3.9 3.3 1.6 0 2.2-1 4.1-1 1.9 0 2.4 1 4.1 1 1.6 0 2.7-1.5 3.8-3.2 1.2-1.7 1.7-3.4 1.7-3.5-.1 0-3.3-1.3-3.3-5.1 0-3.2 2.5-4.7 2.6-4.8-1.4-2.1-3.7-2.3-4.4-2.3-2.3-.1-4.2 1.3-5.2 1.3z"/>
  </g>
  
  <!-- Text -->
  <text x="56" y="29" font-family="-apple-system, BlinkMacSystemFont, 'Segoe UI', Helvetica, Arial, sans-serif" font-size="14" font-weight="600" fill="white" letter-spacing="-0.2">
    Download for macOS
  </text>
  
  <!-- Subtle arrow -->
  <path d="M 248 20 L 252 24 L 248 28" stroke="white" stroke-width="1.5" fill="none" stroke-linecap="round" stroke-linejoin="round" opacity="0.7"/>
</svg>
